<svg xmlns="http://www.w3.org/2000/svg" viewBox="0 0 1200 628" preserveAspectRatio="xMidYMid slice">
  <defs>
    <filter id="shadow" x="-5%" y="-5%" width="110%" height="120%">
      <feDropShadow dx="0" dy="8" stdDeviation="16" flood-color="#00000018"/>
    </filter>
  </defs>

  <!-- Page background -->
  <rect width="1200" height="628" fill="#e4e4e4"/>

  <!-- Browser window -->
  <rect x="72" y="40" width="1056" height="556" rx="10" fill="#ffffff" filter="url(#shadow)"/>

  <!-- Browser chrome -->
  <rect x="72" y="40" width="1056" height="48" rx="10" fill="#f0f0f0"/>
  <rect x="72" y="74" width="1056" height="14" fill="#f0f0f0"/>

  <!-- Traffic lights -->
  <circle cx="108" cy="64" r="7" fill="#dcdcdc"/>
  <circle cx="128" cy="64" r="7" fill="#dcdcdc"/>
  <circle cx="148" cy="64" r="7" fill="#dcdcdc"/>

  <!-- URL bar -->
  <rect x="196" y="54" width="616" height="20" rx="10" fill="#e2e2e2"/>
  <rect x="212" y="62" width="120" height="6" rx="3" fill="#c8c8c8"/>

  <!-- Nav bar -->
  <rect x="72" y="88" width="1056" height="52" fill="#fafafa"/>
  <rect x="104" y="104" width="72" height="14" rx="3" fill="#d0d0d0"/>
  <rect x="800" y="108" width="44" height="8" rx="2" fill="#dedede"/>
  <rect x="856" y="108" width="44" height="8" rx="2" fill="#dedede"/>
  <rect x="912" y="108" width="44" height="8" rx="2" fill="#dedede"/>
  <rect x="976" y="102" width="80" height="22" rx="4" fill="#d0d0d0"/>

  <!-- Hero text area -->
  <rect x="72" y="140" width="1056" height="240" fill="#ffffff"/>
  <rect x="376" y="168" width="448" height="12" rx="3" fill="#ebebeb"/>
  <rect x="296" y="192" width="608" height="32" rx="4" fill="#dcdcdc"/>
  <rect x="336" y="236" width="528" height="14" rx="3" fill="#e8e8e8"/>
  <rect x="376" y="260" width="448" height="14" rx="3" fill="#ebebeb"/>
  <rect x="436" y="292" width="128" height="36" rx="5" fill="#c8c8c8"/>
  <rect x="576" y="292" width="128" height="36" rx="5" fill="#e0e0e0"/>

  <!-- Cards strip background -->
  <rect x="72" y="380" width="1056" height="264" fill="#f4f4f4"/>

  <!-- Card 1 -->
  <rect x="104" y="404" width="304" height="216" rx="8" fill="#ffffff"/>
  <rect x="104" y="404" width="304" height="128" rx="8" fill="#e8e8e8"/>
  <rect x="104" y="500" width="304" height="32" fill="#e8e8e8"/>
  <rect x="120" y="548" width="152" height="10" rx="3" fill="#d8d8d8"/>
  <rect x="120" y="568" width="104" height="8" rx="3" fill="#e8e8e8"/>

  <!-- Card 2 -->
  <rect x="432" y="404" width="304" height="216" rx="8" fill="#ffffff"/>
  <rect x="432" y="404" width="304" height="128" rx="8" fill="#dcdcdc"/>
  <rect x="432" y="500" width="304" height="32" fill="#dcdcdc"/>
  <rect x="448" y="548" width="152" height="10" rx="3" fill="#d0d0d0"/>
  <rect x="448" y="568" width="104" height="8" rx="3" fill="#e0e0e0"/>

  <!-- Card 3 -->
  <rect x="760" y="404" width="304" height="216" rx="8" fill="#ffffff"/>
  <rect x="760" y="404" width="304" height="128" rx="8" fill="#e4e4e4"/>
  <rect x="760" y="500" width="304" height="32" fill="#e4e4e4"/>
  <rect x="776" y="548" width="152" height="10" rx="3" fill="#d8d8d8"/>
  <rect x="776" y="568" width="104" height="8" rx="3" fill="#eaeaea"/>
</svg>
